<?xml version="1.0" encoding="UTF-8"?>
<svg xmlns="http://www.w3.org/2000/svg" viewBox="0 0 900 780" font-family="Segoe UI, Arial, sans-serif">
  <defs>
    <marker id="arrow" markerWidth="10" markerHeight="10" refX="8" refY="3" orient="auto">
      <path d="M0,0 L8,3 L0,6 Z" fill="#94a3b8"/>
    </marker>
  </defs>
  <rect width="900" height="780" fill="#0f172a"/>
  <text x="450" y="36" fill="#e2e8f0" font-size="20" font-weight="700" text-anchor="middle">Career Chat Agent - POST /chat</text>
  <ellipse cx="450" cy="80" rx="70" ry="28" fill="#065f46" stroke="#34d399"/>
  <text x="450" y="85" fill="#ecfdf5" font-size="12" text-anchor="middle">START</text>
  <rect x="300" y="120" width="300" height="44" rx="8" fill="#1d4ed8" stroke="#60a5fa"/>
  <text x="450" y="147" fill="#eff6ff" font-size="12" text-anchor="middle">Frontend - POST /chat</text>
  <rect x="260" y="185" width="380" height="72" rx="8" fill="#4338ca" stroke="#818cf8"/>
  <text x="450" y="210" fill="#eef2ff" font-size="12" text-anchor="middle">ConversationService</text>
  <text x="450" y="228" fill="#c7d2fe" font-size="10" text-anchor="middle">resolve conversation / build context / load 5 msgs</text>
  <rect x="230" y="280" width="440" height="80" rx="8" fill="#78350f" stroke="#fbbf24"/>
  <text x="450" y="305" fill="#fef3c7" font-size="12" font-weight="600" text-anchor="middle">intent_router</text>
  <text x="450" y="325" fill="#fde68a" font-size="10" text-anchor="middle">Structured LLM - greet / find_jobs / match / skill_gap</text>
  <text x="450" y="342" fill="#fde68a" font-size="10" text-anchor="middle">interview_prep / general</text>
  <polygon points="450,390 530,430 450,470 370,430" fill="#854d0e" stroke="#facc15"/>
  <text x="450" y="428" fill="#fef9c3" font-size="11" text-anchor="middle">dispatch</text>
  <rect x="40" y="510" width="150" height="58" rx="6" fill="#831843" stroke="#f472b6"/>
  <text x="115" y="535" fill="#fce7f3" font-size="10" text-anchor="middle">job_search</text>
  <text x="115" y="552" fill="#fbcfe8" font-size="9" text-anchor="middle">RAG retriever</text>
  <rect x="210" y="510" width="150" height="58" rx="6" fill="#831843" stroke="#f472b6"/>
  <text x="285" y="535" fill="#fce7f3" font-size="10" text-anchor="middle">match_jobs</text>
  <text x="285" y="552" fill="#fbcfe8" font-size="9" text-anchor="middle">MatchingOrchestrator</text>
  <rect x="380" y="510" width="140" height="58" rx="6" fill="#831843" stroke="#f472b6"/>
  <text x="450" y="542" fill="#fce7f3" font-size="10" text-anchor="middle">skill_gap</text>
  <rect x="540" y="510" width="150" height="58" rx="6" fill="#831843" stroke="#f472b6"/>
  <text x="615" y="535" fill="#fce7f3" font-size="10" text-anchor="middle">interview_prep</text>
  <text x="615" y="552" fill="#fbcfe8" font-size="9" text-anchor="middle">InterviewPrepService</text>
  <rect x="710" y="510" width="130" height="58" rx="6" fill="#334155" stroke="#94a3b8"/>
  <text x="775" y="542" fill="#e2e8f0" font-size="10" text-anchor="middle">greet / general</text>
  <rect x="230" y="600" width="440" height="72" rx="8" fill="#14532d" stroke="#4ade80"/>
  <text x="450" y="625" fill="#dcfce7" font-size="12" font-weight="600" text-anchor="middle">compose</text>
  <text x="450" y="645" fill="#bbf7d0" font-size="10" text-anchor="middle">ChatOllama + context + tool results + history</text>
  <ellipse cx="450" cy="720" rx="200" ry="36" fill="#065f46" stroke="#34d399"/>
  <text x="450" y="718" fill="#ecfdf5" font-size="11" text-anchor="middle">END - persist messages - ChatResponse</text>
  <line x1="450" y1="108" x2="450" y2="120" stroke="#94a3b8" stroke-width="2" marker-end="url(#arrow)"/>
  <line x1="450" y1="164" x2="450" y2="185" stroke="#94a3b8" stroke-width="2" marker-end="url(#arrow)"/>
  <line x1="450" y1="257" x2="450" y2="280" stroke="#94a3b8" stroke-width="2" marker-end="url(#arrow)"/>
  <line x1="450" y1="360" x2="450" y2="390" stroke="#94a3b8" stroke-width="2" marker-end="url(#arrow)"/>
  <line x1="450" y1="470" x2="450" y2="490" stroke="#94a3b8" stroke-width="2"/>
  <line x1="450" y1="490" x2="115" y2="490" stroke="#94a3b8" stroke-width="1.5" marker-end="url(#arrow)"/>
  <line x1="450" y1="490" x2="285" y2="490" stroke="#94a3b8" stroke-width="1.5" marker-end="url(#arrow)"/>
  <line x1="450" y1="490" x2="450" y2="510" stroke="#94a3b8" stroke-width="1.5" marker-end="url(#arrow)"/>
  <line x1="450" y1="490" x2="615" y2="490" stroke="#94a3b8" stroke-width="1.5" marker-end="url(#arrow)"/>
  <line x1="450" y1="490" x2="775" y2="490" stroke="#94a3b8" stroke-width="1.5" marker-end="url(#arrow)"/>
  <line x1="450" y1="568" x2="450" y2="600" stroke="#94a3b8" stroke-width="2" marker-end="url(#arrow)"/>
  <line x1="450" y1="672" x2="450" y2="684" stroke="#94a3b8" stroke-width="2" marker-end="url(#arrow)"/>
</svg>
